<svg xmlns="http://www.w3.org/2000/svg" width="136" height="27" viewBox="0 0 136 27" fill="none">
  <path d="M14.2472 26.15V22.195L14.5935 22.265C14.3626 23.5483 13.6701 24.575 12.5158 25.345C11.3846 26.115 10.0226 26.5 8.42974 26.5C6.81378 26.5 5.40559 26.1267 4.20516 25.38C3.02782 24.61 2.11596 23.5367 1.46957 22.16C0.823191 20.7833 0.5 19.1617 0.5 17.295C0.5 15.405 0.834734 13.76 1.5042 12.36C2.17367 10.96 3.10862 9.875 4.30904 9.105C5.53255 8.335 6.95229 7.95 8.56824 7.95C10.2535 7.95 11.6155 8.34666 12.6543 9.14C13.7162 9.93333 14.3395 11.0183 14.5242 12.395L14.1433 12.43V0.949999H19.3375V26.15H14.2472ZM10.0919 22.3C11.3154 22.3 12.308 21.8683 13.0698 21.005C13.8317 20.1183 14.2126 18.8583 14.2126 17.225C14.2126 15.5917 13.8201 14.3433 13.0352 13.48C12.2734 12.5933 11.2692 12.15 10.0226 12.15C8.82218 12.15 7.82952 12.5933 7.04463 13.48C6.28282 14.3667 5.90192 15.6267 5.90192 17.26C5.90192 18.8933 6.28282 20.1417 7.04463 21.005C7.82952 21.8683 8.84527 22.3 10.0919 22.3Z" fill="#333333"/>
  <path d="M31.801 26.5C29.8387 26.5 28.1304 26.115 26.6761 25.345C25.2217 24.5517 24.0905 23.455 23.2826 22.055C22.4977 20.655 22.1052 19.045 22.1052 17.225C22.1052 15.3817 22.4977 13.7717 23.2826 12.395C24.0905 10.995 25.2102 9.91 26.6415 9.14C28.0727 8.34666 29.7349 7.95 31.6278 7.95C33.4516 7.95 35.0329 8.32333 36.3718 9.07C37.7108 9.81667 38.7496 10.855 39.4883 12.185C40.227 13.515 40.5964 15.0783 40.5964 16.875C40.5964 17.2483 40.5849 17.5983 40.5618 17.925C40.5387 18.2283 40.5041 18.52 40.4579 18.8H25.1525V15.335H36.2679L35.3676 15.965C35.3676 14.5183 35.0213 13.4567 34.3288 12.78C33.6593 12.08 32.7359 11.73 31.5586 11.73C30.1966 11.73 29.1346 12.1967 28.3728 13.13C27.6341 14.0633 27.2647 15.4633 27.2647 17.33C27.2647 19.15 27.6341 20.5033 28.3728 21.39C29.1346 22.2767 30.2658 22.72 31.7663 22.72C32.5974 22.72 33.313 22.58 33.9133 22.3C34.5135 22.02 34.9636 21.565 35.2637 20.935H40.1462C39.5691 22.6617 38.5765 24.0267 37.1683 25.03C35.7832 26.01 33.9941 26.5 31.801 26.5Z" fill="#333333"/>
  <path d="M47.6802 26.15L40.72 8.3H46.2951L51.7316 24.96H48.8229L54.2248 8.3H59.6614L52.7012 26.15H47.6802Z" fill="#333333"/>
  <path d="M61.6687 26.15V0.949999H66.8628V26.15H61.6687Z" fill="#333333"/>
  <path d="M71.0019 26.15V8.3H76.1961V26.15H71.0019ZM70.8288 5.92V0.25H76.3692V5.92H70.8288Z" fill="#333333"/>
  <path d="M80.3352 26.15V8.3H85.4254V12.5H85.5293V26.15H80.3352ZM92.628 26.15V15.09C92.628 14.11 92.374 13.375 91.8662 12.885C91.3814 12.395 90.6657 12.15 89.7193 12.15C88.9113 12.15 88.1841 12.3367 87.5377 12.71C86.9144 13.0833 86.4181 13.5967 86.0487 14.25C85.7024 14.9033 85.5293 15.6733 85.5293 16.56L85.0792 12.255C85.6563 10.9483 86.4989 9.91 87.607 9.14C88.7381 8.34666 90.1233 7.95 91.7623 7.95C93.7245 7.95 95.2251 8.51 96.2639 9.63C97.3027 10.7267 97.8221 12.2083 97.8221 14.075V26.15H92.628Z" fill="#333333"/>
  <path d="M101.775 26.15V0.949999H106.969V26.15H101.775ZM113.098 26.15L105.757 16.875L112.925 8.3H118.915L110.501 17.68L110.743 16.035L119.262 26.15H113.098Z" fill="#333333"/>
  <path d="M127.743 26.5C125.158 26.5 123.103 25.975 121.58 24.925C120.056 23.875 119.225 22.4283 119.086 20.585H123.727C123.842 21.3783 124.234 21.985 124.904 22.405C125.596 22.8017 126.543 23 127.743 23C128.828 23 129.613 22.8483 130.098 22.545C130.606 22.2183 130.86 21.7633 130.86 21.18C130.86 20.7367 130.71 20.3983 130.41 20.165C130.133 19.9083 129.613 19.6983 128.852 19.535L126.012 18.94C123.911 18.4967 122.365 17.8317 121.372 16.945C120.379 16.035 119.883 14.8683 119.883 13.445C119.883 11.7183 120.541 10.3767 121.857 9.42C123.173 8.44 125.008 7.95 127.363 7.95C129.694 7.95 131.552 8.42833 132.938 9.385C134.323 10.3183 135.084 11.625 135.223 13.305H130.583C130.491 12.6983 130.167 12.2433 129.613 11.94C129.059 11.6133 128.274 11.45 127.259 11.45C126.335 11.45 125.643 11.59 125.181 11.87C124.742 12.1267 124.523 12.5 124.523 12.99C124.523 13.41 124.708 13.7483 125.077 14.005C125.446 14.2383 126.058 14.4483 126.912 14.635L130.098 15.3C131.876 15.6733 133.215 16.3733 134.115 17.4C135.038 18.4033 135.5 19.5933 135.5 20.97C135.5 22.72 134.819 24.085 133.457 25.065C132.118 26.0217 130.214 26.5 127.743 26.5Z" fill="#333333"/>
</svg>