<svg xmlns="http://www.w3.org/2000/svg" width="40" height="40" viewBox="0 0 40 40" fill="none">
  <path fill-rule="evenodd" clip-rule="evenodd" d="M5.7735 34.2252C8.21683 36.6668 12.1435 36.6668 20.0002 36.6668C27.8568 36.6668 31.7852 36.6668 34.2252 34.2252C36.6668 31.7868 36.6668 27.8568 36.6668 20.0002C36.6668 12.1435 36.6668 8.21516 34.2252 5.7735C31.7868 3.3335 27.8568 3.3335 20.0002 3.3335C12.1435 3.3335 8.21516 3.3335 5.7735 5.7735C3.3335 8.21683 3.3335 12.1435 3.3335 20.0002C3.3335 27.8568 3.3335 31.7852 5.7735 34.2252ZM15.8335 14.5835C14.7622 14.5835 13.7149 14.9012 12.8242 15.4964C11.9334 16.0916 11.2391 16.9375 10.8291 17.9273C10.4192 18.9171 10.3119 20.0062 10.5209 21.0569C10.7299 22.1076 11.2458 23.0728 12.0033 23.8303C12.7609 24.5879 13.726 25.1037 14.7768 25.3127C15.8275 25.5218 16.9166 25.4145 17.9064 25.0045C18.8961 24.5945 19.7421 23.9003 20.3373 23.0095C20.9325 22.1187 21.2502 21.0715 21.2502 20.0002C21.2502 19.6686 21.3819 19.3507 21.6163 19.1163C21.8507 18.8819 22.1686 18.7502 22.5002 18.7502C22.8317 18.7502 23.1496 18.8819 23.384 19.1163C23.6185 19.3507 23.7502 19.6686 23.7502 20.0002C23.7502 21.5659 23.2859 23.0965 22.416 24.3984C21.5461 25.7003 20.3097 26.715 18.8631 27.3142C17.4165 27.9134 15.8247 28.0702 14.289 27.7647C12.7533 27.4592 11.3427 26.7053 10.2356 25.5981C9.1284 24.4909 8.37441 23.0803 8.06895 21.5446C7.76348 20.0089 7.92026 18.4172 8.51945 16.9706C9.11864 15.524 10.1333 14.2876 11.4352 13.4177C12.7371 12.5478 14.2677 12.0835 15.8335 12.0835C16.165 12.0835 16.483 12.2152 16.7174 12.4496C16.9518 12.684 17.0835 13.002 17.0835 13.3335C17.0835 13.665 16.9518 13.983 16.7174 14.2174C16.483 14.4518 16.165 14.5835 15.8335 14.5835ZM29.5835 20.0002C29.5835 21.4368 29.0128 22.8145 27.997 23.8303C26.9812 24.8461 25.6034 25.4168 24.1668 25.4168C23.8353 25.4168 23.5174 25.5485 23.2829 25.7829C23.0485 26.0174 22.9168 26.3353 22.9168 26.6668C22.9168 26.9984 23.0485 27.3163 23.2829 27.5507C23.5174 27.7851 23.8353 27.9168 24.1668 27.9168C25.7326 27.9168 27.2632 27.4525 28.5651 26.5826C29.867 25.7127 30.8817 24.4763 31.4809 23.0297C32.0801 21.5832 32.2368 19.9914 31.9314 18.4557C31.6259 16.92 30.8719 15.5094 29.7648 14.4022C28.6576 13.2951 27.247 12.5411 25.7113 12.2356C24.1756 11.9301 22.5838 12.0869 21.1373 12.6861C19.6907 13.2853 18.4543 14.3 17.5844 15.6019C16.7145 16.9038 16.2502 18.4344 16.2502 20.0002C16.2502 20.3317 16.3819 20.6496 16.6163 20.884C16.8507 21.1185 17.1686 21.2502 17.5002 21.2502C17.8317 21.2502 18.1496 21.1185 18.384 20.884C18.6185 20.6496 18.7502 20.3317 18.7502 20.0002C18.7502 18.5636 19.3208 17.1858 20.3367 16.17C21.3525 15.1542 22.7302 14.5835 24.1668 14.5835C25.6034 14.5835 26.9812 15.1542 27.997 16.17C29.0128 17.1858 29.5835 18.5636 29.5835 20.0002Z" fill="#633CFF"/>
</svg>