<svg xmlns="http://www.w3.org/2000/svg" width="125" height="81" viewBox="0 0 125 81" fill="none">
  <path opacity="0.3" d="M24.3466 7.96062C11.6892 12.8619 2.29669 25.2839 0.42882 40.3142C-1.13153 52.9792 2.59661 66.9731 24.544 70.9594C67.2468 78.7194 111.267 79.6267 121.476 58.6967C131.684 37.7668 117.713 4.25146 96.0393 1.93182C78.8413 0.0867275 49.0731 -1.6103 24.3466 7.96062Z" fill="white"/>
  <path d="M78.511 5.03369H46.5219C44.5153 5.03369 42.8887 6.66034 42.8887 8.66692V69.122C42.8887 71.1286 44.5153 72.7553 46.5219 72.7553H78.511C80.5176 72.7553 82.1442 71.1286 82.1442 69.122V8.66692C82.1442 6.66034 80.5176 5.03369 78.511 5.03369Z" fill="#333333"/>
  <path opacity="0.03" d="M62.5164 70.6861C64.0869 70.6861 65.36 69.413 65.36 67.8426C65.36 66.2721 64.0869 64.999 62.5164 64.999C60.946 64.999 59.6729 66.2721 59.6729 67.8426C59.6729 69.413 60.946 70.6861 62.5164 70.6861Z" fill="#333333"/>
  <path d="M78.3134 10.9106H46.7153V63.6399H78.3134V10.9106Z" fill="#EFEBFF"/>
  <path opacity="0.03" d="M58.8984 60.5038C59.4687 60.5038 59.931 60.0414 59.931 59.4711C59.931 58.9008 59.4687 58.4385 58.8984 58.4385C58.3281 58.4385 57.8657 58.9008 57.8657 59.4711C57.8657 60.0414 58.3281 60.5038 58.8984 60.5038Z" fill="#333333"/>
  <path opacity="0.44" d="M62.5165 60.5038C63.0868 60.5038 63.5492 60.0414 63.5492 59.4711C63.5492 58.9008 63.0868 58.4385 62.5165 58.4385C61.9462 58.4385 61.4839 58.9008 61.4839 59.4711C61.4839 60.0414 61.9462 60.5038 62.5165 60.5038Z" fill="white"/>
  <path opacity="0.03" d="M66.1347 60.5038C66.705 60.5038 67.1673 60.0414 67.1673 59.4711C67.1673 58.9008 66.705 58.4385 66.1347 58.4385C65.5644 58.4385 65.1021 58.9008 65.1021 59.4711C65.1021 60.0414 65.5644 60.5038 66.1347 60.5038Z" fill="#333333"/>
  <path opacity="0.03" d="M74.0992 16.7266H50.9331V36.5024H74.0992V16.7266Z" fill="#333333"/>
  <path opacity="0.03" d="M67.1858 40.3145H50.9331V42.1254H67.1858V40.3145Z" fill="#333333"/>
  <path opacity="0.03" d="M74.0994 40.3145H68.2832V42.1254H74.0994V40.3145Z" fill="#333333"/>
  <path opacity="0.03" d="M58.5261 45.8682H50.9331V47.6791H58.5261V45.8682Z" fill="#333333"/>
  <path opacity="0.03" d="M74.0993 45.8682H60.1396V47.6791H74.0993V45.8682Z" fill="#333333"/>
  <path opacity="0.03" d="M68.4766 51.4268H50.9331V53.2377H68.4766V51.4268Z" fill="#333333"/>
  <path d="M39.3276 10.9106H7.72949V63.6399H39.3276V10.9106Z" fill="#EFEBFF"/>
  <path opacity="0.44" d="M19.9125 60.5038C20.4828 60.5038 20.9452 60.0414 20.9452 59.4711C20.9452 58.9008 20.4828 58.4385 19.9125 58.4385C19.3422 58.4385 18.8799 58.9008 18.8799 59.4711C18.8799 60.0414 19.3422 60.5038 19.9125 60.5038Z" fill="white"/>
  <path opacity="0.03" d="M23.5302 60.5038C24.1005 60.5038 24.5628 60.0414 24.5628 59.4711C24.5628 58.9008 24.1005 58.4385 23.5302 58.4385C22.9599 58.4385 22.4976 58.9008 22.4976 59.4711C22.4976 60.0414 22.9599 60.5038 23.5302 60.5038Z" fill="#333333"/>
  <path opacity="0.03" d="M27.1484 60.5038C27.7187 60.5038 28.181 60.0414 28.181 59.4711C28.181 58.9008 27.7187 58.4385 27.1484 58.4385C26.578 58.4385 26.1157 58.9008 26.1157 59.4711C26.1157 60.0414 26.578 60.5038 27.1484 60.5038Z" fill="#333333"/>
  <path opacity="0.03" d="M35.1134 16.7266H11.9473V36.5024H35.1134V16.7266Z" fill="#333333"/>
  <path opacity="0.03" d="M28.2 40.3145H11.9473V42.1254H28.2V40.3145Z" fill="#333333"/>
  <path opacity="0.03" d="M35.1136 40.3145H29.2974V42.1254H35.1136V40.3145Z" fill="#333333"/>
  <path opacity="0.03" d="M19.5402 45.8682H11.9473V47.6791H19.5402V45.8682Z" fill="#333333"/>
  <path opacity="0.03" d="M35.1135 45.8682H21.1538V47.6791H35.1135V45.8682Z" fill="#333333"/>
  <path opacity="0.03" d="M29.4908 51.4268H11.9473V53.2377H29.4908V51.4268Z" fill="#333333"/>
  <path d="M117.299 10.9106H85.7012V63.6399H117.299V10.9106Z" fill="#EFEBFF"/>
  <path opacity="0.03" d="M97.8847 60.5038C98.455 60.5038 98.9173 60.0414 98.9173 59.4711C98.9173 58.9008 98.455 58.4385 97.8847 58.4385C97.3144 58.4385 96.8521 58.9008 96.8521 59.4711C96.8521 60.0414 97.3144 60.5038 97.8847 60.5038Z" fill="#333333"/>
  <path opacity="0.03" d="M101.502 60.5038C102.073 60.5038 102.535 60.0414 102.535 59.4711C102.535 58.9008 102.073 58.4385 101.502 58.4385C100.932 58.4385 100.47 58.9008 100.47 59.4711C100.47 60.0414 100.932 60.5038 101.502 60.5038Z" fill="#333333"/>
  <path opacity="0.44" d="M105.121 60.5038C105.691 60.5038 106.153 60.0414 106.153 59.4711C106.153 58.9008 105.691 58.4385 105.121 58.4385C104.55 58.4385 104.088 58.9008 104.088 59.4711C104.088 60.0414 104.55 60.5038 105.121 60.5038Z" fill="white"/>
  <path opacity="0.03" d="M113.086 16.7266H89.9194V36.5024H113.086V16.7266Z" fill="#333333"/>
  <path opacity="0.03" d="M106.172 40.3145H89.9194V42.1254H106.172V40.3145Z" fill="#333333"/>
  <path opacity="0.03" d="M113.085 40.3145H107.269V42.1254H113.085V40.3145Z" fill="#333333"/>
  <path opacity="0.03" d="M97.5124 45.8682H89.9194V47.6791H97.5124V45.8682Z" fill="#333333"/>
  <path opacity="0.03" d="M113.09 45.8682H99.1299V47.6791H113.09V45.8682Z" fill="#333333"/>
  <path opacity="0.03" d="M107.463 51.4268H89.9194V53.2377H107.463V51.4268Z" fill="#333333"/>
  <path opacity="0.1" d="M73.2984 72.77C73.2984 72.3904 72.4936 56.8248 73.0099 54.509C73.5262 52.1931 78.2642 40.872 77.0152 39.5508C75.7662 38.2297 71.1914 41.2365 71.1914 41.2365C71.1914 41.2365 72.0266 27.6033 70.0525 26.6314C68.0783 25.6595 67.2013 29.4674 67.2013 29.4674L66.1497 44.7178L60.9409 72.6979L73.2984 72.77Z" fill="#333333"/>
  <path d="M69.7789 56.897C70.4433 54.2395 71.4418 51.6465 72.0796 48.9624C72.501 47.1857 75.2269 39.7597 75.99 37.573C76.2253 36.901 76.4266 36.0886 75.971 35.5419C75.8172 35.382 75.6257 35.2634 75.414 35.1971C75.2024 35.1307 74.9774 35.1187 74.7599 35.1622C74.3211 35.2538 73.9163 35.4654 73.5906 35.7734C72.8313 36.4416 71.4304 39.7484 70.4053 39.7446C69.1639 39.7446 69.7486 36.3277 69.7144 35.6709C69.5739 32.8426 69.7827 29.2169 68.6779 26.5594C67.8579 24.5852 65.823 24.851 65.3446 26.9846C64.8663 29.1182 64.8853 38.0589 64.8853 38.0589C64.8853 38.0589 56.943 36.696 55.5877 39.1181C54.2323 41.5403 56.5216 56.9274 56.5216 56.9274L69.7789 56.897Z" fill="#F4A28C"/>
  <path d="M70.747 80.5L70.6027 56.0469L55.7623 52.7896L49.7866 80.5H70.747Z" fill="#633CFF"/>
  <path opacity="0.1" d="M70.7475 80.4999L70.6032 56.0468L63.519 54.4902L62.251 80.4999H70.7475Z" fill="#333333"/>
</svg>