<svg xmlns="http://www.w3.org/2000/svg" width="21" height="20" viewBox="0 0 21 20" fill="none">
  <path d="M11.1537 14.6509C11.2411 14.738 11.3105 14.8415 11.3578 14.9554C11.4051 15.0694 11.4295 15.1916 11.4295 15.3149C11.4295 15.4383 11.4051 15.5605 11.3578 15.6745C11.3105 15.7884 11.2411 15.8919 11.1537 15.979L10.6897 16.4431C9.81033 17.3224 8.61766 17.8164 7.37406 17.8164C6.13046 17.8164 4.93779 17.3224 4.05844 16.4431C3.17908 15.5637 2.68506 14.371 2.68506 13.1274C2.68506 11.8838 3.17908 10.6912 4.05844 9.81181L5.94281 7.92822C6.78772 7.08122 7.92451 6.58933 9.12033 6.55331C10.3161 6.51729 11.4805 6.93986 12.3748 7.73447C12.4672 7.81655 12.5424 7.91601 12.5963 8.02717C12.6502 8.13833 12.6817 8.25902 12.689 8.38235C12.6962 8.50568 12.6791 8.62923 12.6386 8.74595C12.5981 8.86266 12.535 8.97026 12.453 9.06259C12.3709 9.15493 12.2714 9.2302 12.1603 9.28409C12.0491 9.33799 11.9284 9.36947 11.8051 9.37672C11.6818 9.38398 11.5582 9.36687 11.4415 9.32638C11.3248 9.28588 11.2172 9.2228 11.1248 9.14072C10.5885 8.66441 9.89049 8.41102 9.17352 8.43237C8.45656 8.45371 7.77483 8.74819 7.26781 9.25556L5.385 11.1368C4.85747 11.6643 4.5611 12.3798 4.5611 13.1259C4.5611 13.8719 4.85747 14.5874 5.385 15.1149C5.91253 15.6425 6.62802 15.9388 7.37406 15.9388C8.1201 15.9388 8.83559 15.6425 9.36312 15.1149L9.82719 14.6509C9.91425 14.5637 10.0176 14.4946 10.1315 14.4474C10.2453 14.4002 10.3673 14.3759 10.4905 14.3759C10.6137 14.3759 10.7357 14.4002 10.8495 14.4474C10.9633 14.4946 11.0667 14.5637 11.1537 14.6509ZM16.9412 3.55713C16.0612 2.67912 14.8688 2.18604 13.6256 2.18604C12.3825 2.18604 11.1901 2.67912 10.31 3.55713L9.84594 4.02119C9.66982 4.19731 9.57087 4.43618 9.57087 4.68525C9.57087 4.93432 9.66982 5.17319 9.84594 5.34931C10.0221 5.52543 10.2609 5.62438 10.51 5.62438C10.7591 5.62438 10.9979 5.52543 11.1741 5.34931L11.6381 4.88525C12.1657 4.35772 12.8811 4.06135 13.6272 4.06135C14.3732 4.06135 15.0887 4.35772 15.6162 4.88525C16.1438 5.41278 16.4401 6.12827 16.4401 6.87431C16.4401 7.62036 16.1438 8.33584 15.6162 8.86338L13.7327 10.7478C13.2252 11.2549 12.5431 11.549 11.8259 11.5697C11.1088 11.5905 10.4108 11.3364 9.87484 10.8595C9.78251 10.7774 9.67491 10.7143 9.55819 10.6738C9.44148 10.6333 9.31793 10.6162 9.1946 10.6235C9.07127 10.6307 8.95058 10.6622 8.83942 10.7161C8.72825 10.77 8.62879 10.8453 8.54672 10.9376C8.46464 11.0299 8.40156 11.1375 8.36106 11.2542C8.32057 11.371 8.30346 11.4945 8.31072 11.6178C8.31797 11.7412 8.34944 11.8619 8.40334 11.973C8.45724 12.0842 8.53251 12.1836 8.62484 12.2657C9.51858 13.0601 10.6821 13.483 11.8774 13.4477C13.0726 13.4124 14.2092 12.9217 15.0545 12.0759L16.9389 10.1923C17.8179 9.31242 18.3119 8.1197 18.3123 6.87597C18.3128 5.63224 17.8197 4.43917 16.9412 3.55869V3.55713Z" fill="#737373"/>
</svg>