<svg width="52" height="42" viewBox="0 0 52 42" fill="none" xmlns="http://www.w3.org/2000/svg">
<path d="M35.6096 20.6195C35.5807 20.5562 34.8963 19.0367 33.3846 17.525C31.3619 15.5055 28.8127 14.4375 26.0002 14.4375C23.1877 14.4375 20.6385 15.5055 18.6182 17.525C17.1064 19.0367 16.4221 20.5562 16.3908 20.6195C16.3379 20.7395 16.3105 20.8692 16.3105 21.0004C16.3105 21.1315 16.3379 21.2613 16.3908 21.3813C16.4197 21.4453 17.1041 22.9641 18.6166 24.4758C20.6385 26.4953 23.1877 27.5625 26.0002 27.5625C28.8127 27.5625 31.3619 26.4953 33.3814 24.4758C34.8939 22.9641 35.5783 21.4453 35.6072 21.3813C35.6605 21.2614 35.6882 21.1318 35.6887 21.0006C35.6891 20.8695 35.6621 20.7397 35.6096 20.6195ZM32.0111 23.1977C30.3338 24.8492 28.3119 25.6875 26.0002 25.6875C23.6885 25.6875 21.6666 24.8492 19.9916 23.1969C19.3325 22.5447 18.7655 21.8056 18.3064 21C18.7657 20.1947 19.3326 19.4559 19.9916 18.8039C21.6674 17.1508 23.6885 16.3125 26.0002 16.3125C28.3119 16.3125 30.333 17.1508 32.0088 18.8039C32.6678 19.4558 33.2348 20.1947 33.6939 21C33.2348 21.8055 32.6678 22.5447 32.0088 23.1969L32.0111 23.1977ZM26.0002 17.5625C25.3203 17.5625 24.6557 17.7641 24.0904 18.1418C23.5251 18.5195 23.0845 19.0564 22.8243 19.6845C22.5642 20.3126 22.4961 21.0038 22.6287 21.6706C22.7614 22.3374 23.0888 22.9499 23.5695 23.4307C24.0502 23.9114 24.6628 24.2388 25.3296 24.3714C25.9964 24.5041 26.6875 24.436 27.3157 24.1758C27.9438 23.9157 28.4806 23.4751 28.8584 22.9098C29.2361 22.3445 29.4377 21.6799 29.4377 21C29.4367 20.0886 29.0742 19.2149 28.4297 18.5705C27.7853 17.926 26.9115 17.5635 26.0002 17.5625ZM26.0002 22.5625C25.6912 22.5625 25.3891 22.4709 25.1321 22.2992C24.8752 22.1275 24.6749 21.8835 24.5566 21.5979C24.4384 21.3124 24.4074 20.9983 24.4677 20.6952C24.528 20.3921 24.6768 20.1137 24.8953 19.8951C25.1138 19.6766 25.3923 19.5278 25.6954 19.4675C25.9985 19.4072 26.3126 19.4382 26.5981 19.5564C26.8836 19.6747 27.1277 19.875 27.2994 20.1319C27.471 20.3889 27.5627 20.691 27.5627 21C27.5627 21.4144 27.3981 21.8118 27.105 22.1049C26.812 22.3979 26.4146 22.5625 26.0002 22.5625Z" fill="#633CFF"/>
<rect x="0.5" y="0.5" width="51" height="41" rx="7.5" stroke="#633CFF"/>
</svg>
