<svg xmlns="http://www.w3.org/2000/svg" width="13" height="15" viewBox="0 0 13 15" fill="none">
  <path d="M8.98223 1.28781C7.67836 0.98483 6.32238 0.98483 5.0185 1.28781C4.26543 0.825941 3.6905 0.613674 3.27237 0.524074C3.0939 0.483797 2.9113 0.464821 2.72837 0.467541C2.64513 0.469797 2.56228 0.479796 2.4809 0.497408L2.47023 0.499541L2.46597 0.501674H2.46277L2.6089 1.01474L2.46277 0.502741C2.38783 0.523918 2.31844 0.561248 2.25947 0.612109C2.2005 0.662969 2.15338 0.726126 2.12143 0.797141C1.80674 1.5019 1.74678 2.29412 1.95183 3.03821C1.42078 3.68179 1.13138 4.49075 1.1337 5.32514C1.1337 6.98167 1.62223 8.09527 2.4553 8.81101C3.03877 9.31234 3.74703 9.57901 4.45743 9.73154C4.34564 10.0599 4.3035 10.4079 4.3337 10.7534V11.3913C3.89957 11.4819 3.59877 11.4531 3.38437 11.3827C3.11663 11.2942 2.91077 11.1161 2.71343 10.8601C2.61028 10.7221 2.51415 10.579 2.42543 10.4313L2.36463 10.3321C2.28786 10.2044 2.20819 10.0785 2.1257 9.95448C1.92303 9.65474 1.62223 9.27927 1.13583 9.15127L0.619566 9.01581L0.348633 10.0483L0.864899 10.1838C0.950233 10.2051 1.06117 10.2851 1.24357 10.5529C1.31377 10.6586 1.38135 10.766 1.44623 10.875L1.51877 10.9923C1.61903 11.1545 1.73423 11.3337 1.86757 11.5086C2.13743 11.8606 2.50543 12.2158 3.05157 12.3961C3.4249 12.5198 3.84943 12.5497 4.3337 12.475V14.4665C4.3337 14.6079 4.38989 14.7436 4.48991 14.8436C4.58993 14.9436 4.72558 14.9998 4.86703 14.9998H9.1337C9.27515 14.9998 9.4108 14.9436 9.51082 14.8436C9.61084 14.7436 9.66703 14.6079 9.66703 14.4665V10.6659C9.66703 10.3299 9.6521 10.0217 9.55717 9.73474C10.2644 9.58541 10.9673 9.31874 11.5476 8.81741C12.3796 8.09634 12.867 6.97207 12.867 5.30594V5.30487C12.8643 4.47731 12.5748 3.67627 12.0478 3.03821C12.2526 2.29445 12.1927 1.50265 11.8782 0.798208C11.8465 0.727108 11.7996 0.663814 11.7408 0.61277C11.6821 0.561727 11.6128 0.524171 11.538 0.502741L11.3918 1.01474C11.538 0.502741 11.5369 0.502741 11.5358 0.502741L11.5337 0.501674L11.5294 0.499541L11.5198 0.497408C11.4935 0.490558 11.4668 0.485216 11.4398 0.481408C11.384 0.473255 11.3277 0.468624 11.2713 0.467541C11.0884 0.464841 10.9058 0.483817 10.7273 0.524074C10.3102 0.613674 9.7353 0.825941 8.98223 1.28781Z" fill="#737373"/>
</svg>